<mxfile host="app.diagrams.net" modified="2023-05-09T20:24:33.016Z" agent="Mozilla/5.0 (Windows NT 10.0; Win64; x64; rv:109.0) Gecko/20100101 Firefox/112.0" etag="VzEN7LKIfb8fRQkCDeTg" version="21.2.9" type="device">
  <diagram id="C5RBs43oDa-KdzZeNtuy" name="Page-1">
    <mxGraphModel dx="1434" dy="782" grid="1" gridSize="10" guides="1" tooltips="1" connect="1" arrows="1" fold="1" page="1" pageScale="1" pageWidth="827" pageHeight="1169" math="0" shadow="0">
      <root>
        <mxCell id="WIyWlLk6GJQsqaUBKTNV-0" />
        <mxCell id="WIyWlLk6GJQsqaUBKTNV-1" parent="WIyWlLk6GJQsqaUBKTNV-0" />
        <mxCell id="GIHTmsaoCNz1oww3BvJX-17" style="edgeStyle=orthogonalEdgeStyle;rounded=0;orthogonalLoop=1;jettySize=auto;html=1;strokeColor=#093C69;" parent="WIyWlLk6GJQsqaUBKTNV-1" source="GIHTmsaoCNz1oww3BvJX-0" target="GIHTmsaoCNz1oww3BvJX-3" edge="1">
          <mxGeometry relative="1" as="geometry" />
        </mxCell>
        <mxCell id="GIHTmsaoCNz1oww3BvJX-0" value="" style="ellipse;whiteSpace=wrap;html=1;aspect=fixed;fillColor=#1793FF;strokeColor=#29A1E6;" parent="WIyWlLk6GJQsqaUBKTNV-1" vertex="1">
          <mxGeometry x="100" y="146" width="50" height="50" as="geometry" />
        </mxCell>
        <mxCell id="GIHTmsaoCNz1oww3BvJX-1" value="&lt;p align=&quot;center&quot;&gt;&lt;b&gt;Implementation von einem Open-Source Log Analysis Tool oder SIEM für spezifische Logdateien der Hoschscule&lt;/b&gt;&lt;br&gt;&lt;/p&gt;" style="text;html=1;strokeColor=none;fillColor=none;spacing=5;spacingTop=-20;whiteSpace=wrap;overflow=hidden;rounded=0;" parent="WIyWlLk6GJQsqaUBKTNV-1" vertex="1">
          <mxGeometry x="31" y="70" width="190" height="70" as="geometry" />
        </mxCell>
        <mxCell id="GIHTmsaoCNz1oww3BvJX-3" value="&lt;font style=&quot;font-size: 15px;&quot; color=&quot;#ffffff&quot;&gt;&lt;b&gt;&lt;font style=&quot;font-size: 15px;&quot;&gt;&lt;font style=&quot;font-size: 15px;&quot;&gt;&lt;font style=&quot;font-size: 15px;&quot;&gt;&lt;font style=&quot;font-size: 15px;&quot;&gt;Definition von SIEM und Log Analysis Tool&lt;br&gt;&lt;/font&gt;&lt;/font&gt;&lt;/font&gt;&lt;/font&gt;&lt;/b&gt;&lt;/font&gt;" style="rounded=0;whiteSpace=wrap;html=1;fillColor=#1793FF;strokeColor=#1793FF;" parent="WIyWlLk6GJQsqaUBKTNV-1" vertex="1">
          <mxGeometry x="40" y="239" width="170" height="80" as="geometry" />
        </mxCell>
        <mxCell id="GIHTmsaoCNz1oww3BvJX-4" value="&lt;font style=&quot;font-size: 13px;&quot; color=&quot;#ffffff&quot;&gt;&lt;b&gt;&lt;font style=&quot;font-size: 14px;&quot;&gt;&lt;font style=&quot;font-size: 15px;&quot;&gt;&lt;font style=&quot;font-size: 15px;&quot;&gt;Beschreibung von existierenden Lösungen&lt;br&gt;&lt;/font&gt;&lt;/font&gt;&lt;/font&gt;&lt;/b&gt;&lt;/font&gt;" style="rounded=0;whiteSpace=wrap;html=1;fillColor=#1793FF;strokeColor=#1793FF;" parent="WIyWlLk6GJQsqaUBKTNV-1" vertex="1">
          <mxGeometry x="40" y="361" width="170" height="80" as="geometry" />
        </mxCell>
        <mxCell id="GIHTmsaoCNz1oww3BvJX-5" value="&lt;font style=&quot;font-size: 15px;&quot; color=&quot;#ffffff&quot;&gt;&lt;font style=&quot;font-size: 15px;&quot;&gt;&lt;b&gt;Auswahl einer Open Source Lösung&lt;/b&gt;&lt;/font&gt;&lt;/font&gt;&lt;font style=&quot;font-size: 13px;&quot; color=&quot;#ffffff&quot;&gt;&lt;b&gt;&lt;font style=&quot;font-size: 14px;&quot;&gt;&lt;font style=&quot;font-size: 15px;&quot;&gt;&lt;font style=&quot;font-size: 15px;&quot;&gt;&lt;br&gt;&lt;/font&gt;&lt;/font&gt;&lt;/font&gt;&lt;/b&gt;&lt;/font&gt;" style="rounded=0;whiteSpace=wrap;html=1;fillColor=#1793FF;strokeColor=#1793FF;" parent="WIyWlLk6GJQsqaUBKTNV-1" vertex="1">
          <mxGeometry x="40" y="481" width="170" height="80" as="geometry" />
        </mxCell>
        <mxCell id="GIHTmsaoCNz1oww3BvJX-7" value="&lt;font style=&quot;font-size: 15px;&quot; color=&quot;#ffffff&quot;&gt;&lt;b&gt;&lt;font style=&quot;font-size: 15px;&quot;&gt;&lt;font style=&quot;font-size: 15px;&quot;&gt;Festelegung und Definition der Angriffe&lt;/font&gt;&lt;/font&gt;&lt;/b&gt;&lt;/font&gt;" style="rounded=0;whiteSpace=wrap;html=1;fillColor=#1793FF;strokeColor=#1793FF;" parent="WIyWlLk6GJQsqaUBKTNV-1" vertex="1">
          <mxGeometry x="339" y="555" width="170" height="79" as="geometry" />
        </mxCell>
        <mxCell id="GIHTmsaoCNz1oww3BvJX-9" value="&lt;font style=&quot;font-size: 13px;&quot; color=&quot;#ffffff&quot;&gt;&lt;b&gt;&lt;font style=&quot;font-size: 13px;&quot;&gt;&lt;font style=&quot;font-size: 14px;&quot;&gt;&lt;font style=&quot;font-size: 15px;&quot;&gt;Bewertung der Ausgabe des ausgewählten Tool&lt;/font&gt;&lt;/font&gt;&lt;/font&gt;&lt;br&gt;&lt;/b&gt;&lt;/font&gt;" style="rounded=0;whiteSpace=wrap;html=1;fillColor=#1793FF;strokeColor=#1793FF;" parent="WIyWlLk6GJQsqaUBKTNV-1" vertex="1">
          <mxGeometry x="349" y="298" width="170" height="80" as="geometry" />
        </mxCell>
        <mxCell id="GIHTmsaoCNz1oww3BvJX-11" value="&lt;font color=&quot;#ffffff&quot;&gt;&lt;b&gt;&lt;font style=&quot;font-size: 13px;&quot;&gt;&lt;font style=&quot;font-size: 14px;&quot;&gt;&lt;font style=&quot;font-size: 15px;&quot;&gt;Erstellung von Use Cases für die ausgewählten Angriffe&lt;/font&gt;&lt;/font&gt;&lt;/font&gt;&lt;/b&gt;&lt;/font&gt;&lt;font style=&quot;font-size: 15px;&quot; color=&quot;#ffffff&quot;&gt;&lt;b&gt;&lt;br&gt;&lt;/b&gt;&lt;/font&gt;" style="rounded=0;whiteSpace=wrap;html=1;fillColor=#1793FF;strokeColor=#1793FF;" parent="WIyWlLk6GJQsqaUBKTNV-1" vertex="1">
          <mxGeometry x="449" y="430" width="170" height="80" as="geometry" />
        </mxCell>
        <mxCell id="GIHTmsaoCNz1oww3BvJX-14" value="&lt;div style=&quot;font-size: 15px;&quot;&gt;&lt;font style=&quot;font-size: 15px;&quot; color=&quot;#ffffff&quot;&gt;&lt;b&gt;Darstellung der Ergebnisse&lt;/b&gt;&lt;/font&gt;&lt;font style=&quot;font-size: 15px;&quot; color=&quot;#ffffff&quot;&gt;&lt;b&gt;&lt;br&gt;&lt;/b&gt;&lt;/font&gt;&lt;/div&gt;" style="rounded=0;whiteSpace=wrap;html=1;fillColor=#1793FF;strokeColor=#1793FF;" parent="WIyWlLk6GJQsqaUBKTNV-1" vertex="1">
          <mxGeometry x="637" y="279" width="170" height="80" as="geometry" />
        </mxCell>
        <mxCell id="GIHTmsaoCNz1oww3BvJX-15" value="" style="ellipse;whiteSpace=wrap;html=1;aspect=fixed;fillColor=#1793FF;strokeColor=#29A1E6;" parent="WIyWlLk6GJQsqaUBKTNV-1" vertex="1">
          <mxGeometry x="697" y="431" width="50" height="50" as="geometry" />
        </mxCell>
        <mxCell id="GIHTmsaoCNz1oww3BvJX-16" value="&lt;p align=&quot;center&quot;&gt;&lt;b&gt;Vorschläge für die Weiterentwicklung und Verwaltung des ausgewählten Tools&lt;/b&gt;&lt;br&gt;&lt;/p&gt;" style="text;html=1;strokeColor=none;fillColor=none;spacing=5;spacingTop=-20;whiteSpace=wrap;overflow=hidden;rounded=0;" parent="WIyWlLk6GJQsqaUBKTNV-1" vertex="1">
          <mxGeometry x="627" y="491" width="190" height="70" as="geometry" />
        </mxCell>
        <mxCell id="GIHTmsaoCNz1oww3BvJX-18" style="edgeStyle=orthogonalEdgeStyle;rounded=0;orthogonalLoop=1;jettySize=auto;html=1;strokeColor=#093C69;exitX=0.5;exitY=1;exitDx=0;exitDy=0;" parent="WIyWlLk6GJQsqaUBKTNV-1" source="GIHTmsaoCNz1oww3BvJX-3" target="GIHTmsaoCNz1oww3BvJX-4" edge="1">
          <mxGeometry relative="1" as="geometry">
            <mxPoint x="130" y="190" as="sourcePoint" />
            <mxPoint x="130" y="250" as="targetPoint" />
          </mxGeometry>
        </mxCell>
        <mxCell id="GIHTmsaoCNz1oww3BvJX-19" style="edgeStyle=orthogonalEdgeStyle;rounded=0;orthogonalLoop=1;jettySize=auto;html=1;strokeColor=#093C69;exitX=0.5;exitY=1;exitDx=0;exitDy=0;entryX=0.5;entryY=0;entryDx=0;entryDy=0;" parent="WIyWlLk6GJQsqaUBKTNV-1" source="GIHTmsaoCNz1oww3BvJX-4" target="GIHTmsaoCNz1oww3BvJX-5" edge="1">
          <mxGeometry relative="1" as="geometry">
            <mxPoint x="130" y="320" as="sourcePoint" />
            <mxPoint x="130" y="350" as="targetPoint" />
          </mxGeometry>
        </mxCell>
        <mxCell id="DbjgbhiGWmtTwBGG-gCH-0" value="&lt;div style=&quot;font-size: 15px;&quot;&gt;&lt;font style=&quot;font-size: 15px;&quot; color=&quot;#ffffff&quot;&gt;&lt;b&gt;Implementation des ausgewählten Tools&lt;br&gt;&lt;/b&gt;&lt;/font&gt;&lt;/div&gt;" style="rounded=0;whiteSpace=wrap;html=1;fillColor=#1793FF;strokeColor=#1793FF;" parent="WIyWlLk6GJQsqaUBKTNV-1" vertex="1">
          <mxGeometry x="41" y="600" width="170" height="80" as="geometry" />
        </mxCell>
        <mxCell id="DbjgbhiGWmtTwBGG-gCH-4" style="edgeStyle=orthogonalEdgeStyle;rounded=0;orthogonalLoop=1;jettySize=auto;html=1;strokeColor=#093C69;exitX=0.5;exitY=1;exitDx=0;exitDy=0;" parent="WIyWlLk6GJQsqaUBKTNV-1" source="GIHTmsaoCNz1oww3BvJX-5" edge="1">
          <mxGeometry relative="1" as="geometry">
            <mxPoint x="135" y="451" as="sourcePoint" />
            <mxPoint x="125" y="600" as="targetPoint" />
          </mxGeometry>
        </mxCell>
        <mxCell id="DbjgbhiGWmtTwBGG-gCH-6" style="edgeStyle=orthogonalEdgeStyle;rounded=0;orthogonalLoop=1;jettySize=auto;html=1;strokeColor=#093C69;exitX=0.465;exitY=1.004;exitDx=0;exitDy=0;entryX=0.5;entryY=1;entryDx=0;entryDy=0;exitPerimeter=0;" parent="WIyWlLk6GJQsqaUBKTNV-1" source="DbjgbhiGWmtTwBGG-gCH-0" target="GIHTmsaoCNz1oww3BvJX-7" edge="1">
          <mxGeometry relative="1" as="geometry">
            <mxPoint x="135" y="571" as="sourcePoint" />
            <mxPoint x="135" y="610" as="targetPoint" />
            <Array as="points">
              <mxPoint x="120" y="710" />
              <mxPoint x="424" y="710" />
            </Array>
          </mxGeometry>
        </mxCell>
        <mxCell id="DbjgbhiGWmtTwBGG-gCH-9" value="&lt;font style=&quot;font-size: 13px;&quot; color=&quot;#ffffff&quot;&gt;&lt;b&gt;&lt;font style=&quot;font-size: 13px;&quot;&gt;&lt;font style=&quot;font-size: 14px;&quot;&gt;&lt;font style=&quot;font-size: 15px;&quot;&gt;Bearbeitung und Eingabe von Logdateien&lt;/font&gt;&lt;/font&gt;&lt;/font&gt;&lt;br&gt;&lt;/b&gt;&lt;/font&gt;" style="rounded=0;whiteSpace=wrap;html=1;fillColor=#1793FF;strokeColor=#1793FF;" parent="WIyWlLk6GJQsqaUBKTNV-1" vertex="1">
          <mxGeometry x="249" y="430" width="170" height="80" as="geometry" />
        </mxCell>
        <mxCell id="DbjgbhiGWmtTwBGG-gCH-13" style="edgeStyle=orthogonalEdgeStyle;rounded=0;orthogonalLoop=1;jettySize=auto;html=1;strokeColor=#093C69;exitX=0.5;exitY=0;exitDx=0;exitDy=0;entryX=0.476;entryY=1.002;entryDx=0;entryDy=0;entryPerimeter=0;" parent="WIyWlLk6GJQsqaUBKTNV-1" source="DbjgbhiGWmtTwBGG-gCH-9" target="GIHTmsaoCNz1oww3BvJX-9" edge="1">
          <mxGeometry relative="1" as="geometry">
            <mxPoint x="190" y="590" as="sourcePoint" />
            <mxPoint x="349" y="591" as="targetPoint" />
          </mxGeometry>
        </mxCell>
        <mxCell id="DbjgbhiGWmtTwBGG-gCH-17" style="edgeStyle=orthogonalEdgeStyle;rounded=0;orthogonalLoop=1;jettySize=auto;html=1;strokeColor=#093C69;exitX=0.5;exitY=0;exitDx=0;exitDy=0;entryX=0.463;entryY=0.986;entryDx=0;entryDy=0;entryPerimeter=0;" parent="WIyWlLk6GJQsqaUBKTNV-1" source="GIHTmsaoCNz1oww3BvJX-7" target="DbjgbhiGWmtTwBGG-gCH-9" edge="1">
          <mxGeometry relative="1" as="geometry">
            <mxPoint x="434" y="551" as="sourcePoint" />
            <mxPoint x="545" y="499" as="targetPoint" />
          </mxGeometry>
        </mxCell>
        <mxCell id="DbjgbhiGWmtTwBGG-gCH-19" style="edgeStyle=orthogonalEdgeStyle;rounded=0;orthogonalLoop=1;jettySize=auto;html=1;strokeColor=#093C69;exitX=0.5;exitY=0;exitDx=0;exitDy=0;entryX=0.474;entryY=0.988;entryDx=0;entryDy=0;entryPerimeter=0;" parent="WIyWlLk6GJQsqaUBKTNV-1" source="GIHTmsaoCNz1oww3BvJX-11" target="GIHTmsaoCNz1oww3BvJX-9" edge="1">
          <mxGeometry relative="1" as="geometry">
            <mxPoint x="344" y="419" as="sourcePoint" />
            <mxPoint x="440" y="354" as="targetPoint" />
          </mxGeometry>
        </mxCell>
        <mxCell id="DbjgbhiGWmtTwBGG-gCH-21" style="edgeStyle=orthogonalEdgeStyle;rounded=0;orthogonalLoop=1;jettySize=auto;html=1;strokeColor=#093C69;exitX=0.474;exitY=0.014;exitDx=0;exitDy=0;exitPerimeter=0;" parent="WIyWlLk6GJQsqaUBKTNV-1" source="GIHTmsaoCNz1oww3BvJX-9" target="GIHTmsaoCNz1oww3BvJX-14" edge="1">
          <mxGeometry relative="1" as="geometry">
            <mxPoint x="520" y="216" as="sourcePoint" />
            <mxPoint x="764" y="196" as="targetPoint" />
            <Array as="points">
              <mxPoint x="430" y="216" />
              <mxPoint x="720" y="216" />
            </Array>
          </mxGeometry>
        </mxCell>
        <mxCell id="DbjgbhiGWmtTwBGG-gCH-24" style="edgeStyle=orthogonalEdgeStyle;rounded=0;orthogonalLoop=1;jettySize=auto;html=1;strokeColor=#093C69;exitX=0.5;exitY=1;exitDx=0;exitDy=0;" parent="WIyWlLk6GJQsqaUBKTNV-1" source="GIHTmsaoCNz1oww3BvJX-14" target="GIHTmsaoCNz1oww3BvJX-15" edge="1">
          <mxGeometry relative="1" as="geometry">
            <mxPoint x="93" y="329" as="sourcePoint" />
            <mxPoint x="93" y="371" as="targetPoint" />
          </mxGeometry>
        </mxCell>
        <mxCell id="DbjgbhiGWmtTwBGG-gCH-25" style="edgeStyle=orthogonalEdgeStyle;rounded=0;orthogonalLoop=1;jettySize=auto;html=1;strokeColor=#093C69;exitX=0.5;exitY=0;exitDx=0;exitDy=0;entryX=0.5;entryY=1;entryDx=0;entryDy=0;" parent="WIyWlLk6GJQsqaUBKTNV-1" source="GIHTmsaoCNz1oww3BvJX-7" target="GIHTmsaoCNz1oww3BvJX-11" edge="1">
          <mxGeometry relative="1" as="geometry">
            <mxPoint x="434" y="565" as="sourcePoint" />
            <mxPoint x="338" y="519" as="targetPoint" />
          </mxGeometry>
        </mxCell>
      </root>
    </mxGraphModel>
  </diagram>
</mxfile>
